<svg width="210" height="137" viewBox="0 0 210 137" fill="none" xmlns="http://www.w3.org/2000/svg">
<path d="M24.242 102.273C23.4452 102.93 22.9998 104.102 22.9061 105.789C22.8592 107.43 23.1405 109.117 23.7498 110.852C24.4061 112.539 25.3905 114.039 26.703 115.352C28.0155 116.664 29.6561 117.32 31.6248 117.32C32.8905 117.32 33.9686 117.016 34.8592 116.406C35.7967 115.797 36.5467 115.047 37.1092 114.156C37.7186 113.219 38.1639 112.188 38.4452 111.062C38.7264 109.938 38.867 108.836 38.867 107.758C38.867 106.211 38.5623 104.922 37.953 103.891C37.3905 102.859 36.617 101.969 35.6327 101.219C34.6952 100.422 33.5936 99.7656 32.328 99.25C31.1092 98.6875 29.867 98.125 28.6014 97.5625C27.4295 97.0938 26.0233 96.5078 24.3827 95.8047C22.742 95.0547 21.1717 94.0938 19.6717 92.9219C18.1717 91.7031 16.8827 90.2266 15.8045 88.4922C14.7733 86.7109 14.2577 84.5312 14.2577 81.9531C14.2577 80.2656 14.703 78.5547 15.5936 76.8203C16.4842 75.0859 17.7498 73.5156 19.3905 72.1094C21.0311 70.6562 22.9998 69.4844 25.2967 68.5938C27.6405 67.7031 30.2655 67.2578 33.1717 67.2578C36.0311 67.2578 38.3514 67.5156 40.1327 68.0312C41.9139 68.5469 43.2967 69.2266 44.2811 70.0703C45.2655 70.8672 45.9217 71.7578 46.2498 72.7422C46.6248 73.6797 46.8123 74.5703 46.8123 75.4141C46.8123 76.2578 46.5545 77.125 46.0389 78.0156C45.5233 78.8594 44.9139 79.6562 44.2108 80.4062C43.5077 81.1094 42.7811 81.7422 42.0311 82.3047C41.2811 82.8203 40.6717 83.1719 40.203 83.3594C40.4373 82.75 40.6717 81.9062 40.9061 80.8281C41.1405 79.75 41.0702 78.6719 40.6952 77.5938C40.367 76.5156 39.5467 75.5781 38.2342 74.7812C36.9686 73.9844 34.9061 73.5859 32.0467 73.5859C30.4061 73.5859 28.8123 73.8438 27.2655 74.3594C25.7186 74.875 24.3358 75.5547 23.117 76.3984C21.9452 77.1953 21.0077 78.1094 20.3045 79.1406C19.6014 80.1719 19.2498 81.2266 19.2498 82.3047C19.2498 83.3359 19.6014 84.2969 20.3045 85.1875C21.0545 86.0312 22.0389 86.8516 23.2577 87.6484C24.5233 88.3984 25.953 89.1484 27.5467 89.8984C29.1873 90.6484 30.8983 91.3984 32.6795 92.1484C34.4139 92.8984 36.1248 93.7188 37.8123 94.6094C39.4998 95.4531 40.9998 96.4375 42.3123 97.5625C43.6717 98.6875 44.7498 99.9531 45.5467 101.359C46.3436 102.766 46.742 104.383 46.742 106.211C46.742 108.18 46.367 110.078 45.617 111.906C44.9139 113.688 43.8827 115.258 42.5233 116.617C41.2108 117.977 39.5936 119.055 37.6717 119.852C35.7498 120.695 33.5702 121.117 31.1327 121.117C28.9764 121.117 26.9373 120.766 25.0155 120.062C23.0936 119.359 21.4061 118.445 19.953 117.32C18.5467 116.195 17.4217 114.953 16.578 113.594C15.7342 112.234 15.3123 110.898 15.3123 109.586C15.3123 108.18 15.617 106.984 16.2264 106C16.8827 105.016 17.6795 104.242 18.617 103.68C19.5545 103.07 20.5155 102.648 21.4998 102.414C22.5311 102.18 23.4452 102.133 24.242 102.273ZM59.5839 115.773C56.3027 115.773 53.7714 114.672 51.9902 112.469C50.2089 110.266 49.3183 107.383 49.3183 103.82C49.3183 101.336 49.6698 99.0156 50.373 96.8594C51.123 94.6562 52.1073 92.7578 53.3261 91.1641C54.5448 89.5703 55.9511 88.3281 57.5448 87.4375C59.1855 86.5 60.8964 86.0312 62.6777 86.0312C64.412 86.0312 65.8886 86.6641 67.1073 87.9297C68.3261 89.1484 68.9355 90.9062 68.9355 93.2031C68.9355 94.7031 68.6073 96.2031 67.9511 97.7031C67.2948 99.1562 66.4277 100.469 65.3495 101.641C64.3183 102.766 63.1698 103.68 61.9042 104.383C60.6386 105.086 59.4198 105.438 58.248 105.438C57.498 105.438 56.8652 105.344 56.3495 105.156C55.8339 104.969 55.3652 104.688 54.9433 104.312C55.0839 106.984 55.6698 108.859 56.7011 109.938C57.7323 110.969 59.0683 111.484 60.7089 111.484C61.8339 111.484 62.8183 111.25 63.662 110.781C64.5527 110.312 65.3027 109.773 65.912 109.164C66.5214 108.555 67.0136 107.945 67.3886 107.336C67.7636 106.68 68.0214 106.188 68.162 105.859C68.3027 105.578 68.537 105.438 68.8652 105.438C69.2402 105.438 69.4277 105.719 69.4277 106.281C69.4277 106.797 69.2402 107.594 68.8652 108.672C68.537 109.703 67.9745 110.758 67.1777 111.836C66.3808 112.867 65.3495 113.781 64.0839 114.578C62.8652 115.375 61.3652 115.773 59.5839 115.773ZM62.8183 89.0547C62.537 89.0547 61.998 89.3594 61.2011 89.9688C60.4511 90.5312 59.6308 91.375 58.7402 92.5C57.8964 93.625 57.0995 94.9844 56.3495 96.5781C55.6464 98.125 55.2011 99.8828 55.0136 101.852C57.8261 101.195 60.0527 100.164 61.6933 98.7578C63.3339 97.3516 64.1542 95.2891 64.1542 92.5703C64.1542 91.2109 63.9902 90.2969 63.662 89.8281C63.3339 89.3125 63.0527 89.0547 62.8183 89.0547ZM91.4805 93.4141C91.4805 94.0703 91.293 94.75 90.918 95.4531C90.5898 96.1094 90.168 96.7422 89.6523 97.3516C89.1367 97.9609 88.5508 98.5 87.8945 98.9688C87.2852 99.3906 86.6992 99.6484 86.1367 99.7422C86.5117 98.2891 86.6289 97.1641 86.4883 96.3672C86.3477 95.5703 86.1133 94.9844 85.7852 94.6094C85.4102 94.1875 84.9414 93.9531 84.3789 93.9062C83.5352 93.9062 82.7148 94.3984 81.918 95.3828C81.168 96.3203 80.5117 97.4922 79.9492 98.8984C79.3867 100.258 78.9414 101.734 78.6133 103.328C78.2852 104.875 78.1211 106.281 78.1211 107.547C78.0742 108.438 78.0977 109.305 78.1914 110.148C78.2383 110.852 78.3086 111.578 78.4023 112.328C78.543 113.078 78.7305 113.664 78.9648 114.086C78.6836 114.32 78.2148 114.602 77.5586 114.93C76.9492 115.258 76.293 115.469 75.5898 115.562C74.9336 115.656 74.3242 115.539 73.7617 115.211C73.2461 114.883 72.9648 114.18 72.918 113.102C72.8242 112.07 72.7539 110.922 72.707 109.656C72.707 108.344 72.707 107.055 72.707 105.789C72.7539 104.477 72.8008 103.188 72.8477 101.922C72.8945 100.656 72.9648 99.4844 73.0586 98.4062C73.1523 96.3438 73.1992 94.75 73.1992 93.625C73.1992 92.5 73.1758 91.4219 73.1289 90.3906C73.1289 90.2031 73.4336 89.9453 74.043 89.6172C74.6992 89.2422 75.4023 88.9141 76.1523 88.6328C76.9492 88.3516 77.6758 88.1875 78.332 88.1406C78.9883 88.0938 79.3164 88.2344 79.3164 88.5625C79.3164 89.0781 79.2461 90.1094 79.1055 91.6562C79.0117 93.1562 78.8711 94.7266 78.6836 96.3672C79.0117 95.4766 79.4336 94.5156 79.9492 93.4844C80.5117 92.4531 81.1445 91.4922 81.8477 90.6016C82.5508 89.7109 83.3477 88.9844 84.2383 88.4219C85.1289 87.8125 86.1133 87.5078 87.1914 87.5078C88.0352 87.5078 88.7148 87.7656 89.2305 88.2812C89.793 88.7969 90.2383 89.3828 90.5664 90.0391C90.8945 90.6953 91.1289 91.3516 91.2695 92.0078C91.4102 92.6641 91.4805 93.1328 91.4805 93.4141ZM101.721 111.344C102.143 111.344 102.705 110.594 103.408 109.094C104.111 107.594 104.768 105.789 105.377 103.68C106.033 101.57 106.549 99.3906 106.924 97.1406C107.346 94.8906 107.463 92.9922 107.275 91.4453C107.182 90.9297 107.041 90.5078 106.854 90.1797C106.713 89.8516 106.525 89.5 106.291 89.125C106.572 88.75 106.924 88.4688 107.346 88.2812C107.768 88.0469 108.166 87.8828 108.541 87.7891C109.01 87.6484 109.479 87.5547 109.947 87.5078C111.072 87.4609 111.893 87.6484 112.408 88.0703C112.69 88.3516 112.83 89.0078 112.83 90.0391C112.83 91.0703 112.713 92.2891 112.479 93.6953C112.291 95.0547 112.01 96.5078 111.635 98.0547C111.307 99.5547 110.932 100.938 110.51 102.203C110.088 103.422 109.572 104.758 108.963 106.211C108.354 107.617 107.721 108.977 107.065 110.289C106.408 111.555 105.752 112.656 105.096 113.594C104.44 114.484 103.877 115.023 103.408 115.211C102.424 115.586 101.44 115.773 100.455 115.773C99.5177 115.773 98.9317 115.656 98.6973 115.422C98.6036 115.328 98.3927 115 98.0645 114.438C97.7364 113.875 97.3614 113.148 96.9395 112.258C96.5645 111.367 96.1427 110.336 95.6739 109.164C95.252 107.945 94.877 106.656 94.5489 105.297C94.2208 103.938 93.9864 102.461 93.8458 100.867C93.7052 99.2734 93.5411 97.7266 93.3536 96.2266C93.213 94.6797 93.002 93.25 92.7208 91.9375C92.4395 90.625 92.0177 89.5469 91.4552 88.7031L94.7598 87.3672C95.0411 87.2266 95.3692 87.1094 95.7442 87.0156C96.1192 86.875 96.4942 86.8281 96.8692 86.875C97.2442 86.9219 97.5723 87.1094 97.8536 87.4375C98.1817 87.7188 98.3927 88.2344 98.4864 88.9844C98.5802 89.8281 98.6505 90.8359 98.6973 92.0078C98.7911 93.1797 98.8614 94.3984 98.9083 95.6641C99.002 96.9297 99.0958 98.1953 99.1895 99.4609C99.2833 100.68 99.377 101.781 99.4708 102.766C99.5645 103.797 99.6817 104.828 99.8223 105.859C100.01 106.891 100.197 107.805 100.385 108.602C100.619 109.398 100.83 110.055 101.018 110.57C101.252 111.086 101.486 111.344 101.721 111.344ZM124.899 115.773C121.617 115.773 119.086 114.672 117.305 112.469C115.524 110.266 114.633 107.383 114.633 103.82C114.633 101.336 114.985 99.0156 115.688 96.8594C116.438 94.6562 117.422 92.7578 118.641 91.1641C119.86 89.5703 121.266 88.3281 122.86 87.4375C124.5 86.5 126.211 86.0312 127.992 86.0312C129.727 86.0312 131.203 86.6641 132.422 87.9297C133.641 89.1484 134.25 90.9062 134.25 93.2031C134.25 94.7031 133.922 96.2031 133.266 97.7031C132.61 99.1562 131.742 100.469 130.664 101.641C129.633 102.766 128.485 103.68 127.219 104.383C125.953 105.086 124.735 105.438 123.563 105.438C122.813 105.438 122.18 105.344 121.664 105.156C121.149 104.969 120.68 104.688 120.258 104.312C120.399 106.984 120.985 108.859 122.016 109.938C123.047 110.969 124.383 111.484 126.024 111.484C127.149 111.484 128.133 111.25 128.977 110.781C129.867 110.312 130.617 109.773 131.227 109.164C131.836 108.555 132.328 107.945 132.703 107.336C133.078 106.68 133.336 106.188 133.477 105.859C133.617 105.578 133.852 105.438 134.18 105.438C134.555 105.438 134.742 105.719 134.742 106.281C134.742 106.797 134.555 107.594 134.18 108.672C133.852 109.703 133.289 110.758 132.492 111.836C131.695 112.867 130.664 113.781 129.399 114.578C128.18 115.375 126.68 115.773 124.899 115.773ZM128.133 89.0547C127.852 89.0547 127.313 89.3594 126.516 89.9688C125.766 90.5312 124.945 91.375 124.055 92.5C123.211 93.625 122.414 94.9844 121.664 96.5781C120.961 98.125 120.516 99.8828 120.328 101.852C123.141 101.195 125.367 100.164 127.008 98.7578C128.649 97.3516 129.469 95.2891 129.469 92.5703C129.469 91.2109 129.305 90.2969 128.977 89.8281C128.649 89.3125 128.367 89.0547 128.133 89.0547Z" fill="#EDC737"/>
<path d="M54.407 35.9766C54.1258 35.6953 53.8914 35.3672 53.7039 34.9922C53.5633 34.6172 53.4461 34.2656 53.3523 33.9375C53.2117 33.5625 53.1414 33.1641 53.1414 32.7422C53.0945 32.3672 53.0945 31.9922 53.1414 31.6172C53.1883 31.3359 53.2352 31.0547 53.282 30.7734C53.3289 30.4453 53.4461 30.2109 53.6336 30.0703C54.0086 29.9766 54.4305 29.9062 54.8992 29.8594C55.4148 29.7656 55.8836 29.6719 56.3055 29.5781C56.8211 29.4844 57.3367 29.3906 57.8523 29.2969C58.0398 29.0156 58.4148 28.7344 58.9773 28.4531C59.5867 28.125 60.2195 27.8438 60.8758 27.6094C61.5789 27.375 62.2352 27.2109 62.8445 27.1172C63.4539 26.9766 63.8758 26.9766 64.1102 27.1172V28.5938C65.3289 28.4531 66.5945 28.3359 67.907 28.2422C69.2195 28.1016 70.6258 28.0312 72.1258 28.0312C73.9539 27.9844 75.6648 27.9375 77.2586 27.8906C78.618 27.8438 79.9773 27.8438 81.3367 27.8906C82.743 27.8906 83.8211 27.9141 84.5711 27.9609C84.9461 28.0078 85.2273 28.2891 85.4148 28.8047C85.6492 29.2734 85.7195 29.8828 85.6258 30.6328C85.5789 31.3828 85.3445 32.2031 84.9227 33.0938C84.5008 33.9844 83.8445 34.8281 82.9539 35.625C81.8289 35.3906 80.657 35.2031 79.4383 35.0625C78.2195 34.9219 77.0945 34.8047 76.0633 34.7109C74.8445 34.6172 73.6727 34.5938 72.5477 34.6406C71.0945 34.6406 69.6648 34.6875 68.2586 34.7812C66.8523 34.8281 65.493 34.8984 64.1805 34.9922C64.2273 37.2891 64.2508 39.9141 64.2508 42.8672C64.2977 45.7734 64.3445 48.7266 64.3914 51.7266C65.0008 51.6797 65.6102 51.6328 66.2195 51.5859C66.8289 51.5391 67.4617 51.4922 68.118 51.4453C69.8055 51.3516 71.4461 51.2578 73.0398 51.1641C74.6805 51.0703 76.0867 51.1172 77.2586 51.3047C78.4773 51.4453 79.3914 51.7969 80.0008 52.3594C80.6102 52.9219 80.7508 53.8125 80.4227 55.0312L79.4383 58.4062C79.3445 58.1719 79.0867 57.9844 78.6648 57.8438C78.2898 57.6562 77.8445 57.5156 77.3289 57.4219C76.7664 57.2812 76.1336 57.1641 75.4305 57.0703C73.7898 56.8828 71.9852 56.8594 70.0164 57C68.0477 57.1406 66.1727 57.3516 64.3914 57.6328V57.7031C64.4383 61.8281 64.4148 65.25 64.3211 67.9688C64.2742 70.6875 64.2039 72.7969 64.1102 74.2969C64.7195 74.2031 65.3055 74.1328 65.868 74.0859C66.4773 74.0391 67.1102 73.9688 67.7664 73.875C69.4539 73.7344 71.2117 73.6406 73.0398 73.5938C74.5867 73.5469 76.2977 73.5469 78.1727 73.5938C80.0945 73.5938 81.9461 73.7109 83.7273 73.9453C84.0086 74.4141 84.1023 75.0234 84.0086 75.7734C83.9148 76.5234 83.7508 77.25 83.5164 77.9531C83.2352 78.7969 82.8836 79.6875 82.4617 80.625C80.3523 80.3906 78.3133 80.2266 76.3445 80.1328C74.3758 80.0391 72.618 79.9688 71.0711 79.9219C69.243 79.875 67.532 79.875 65.9383 79.9219C63.032 79.8281 60.7352 79.9688 59.0477 80.3438C57.3602 80.7656 56.1648 81.0703 55.4617 81.2578C54.993 81.3984 54.6414 81.3281 54.407 81.0469C54.1727 80.7656 53.9148 80.2969 53.6336 79.6406C53.3523 79.0312 53.2586 78.1641 53.3523 77.0391C53.3523 76.9453 53.3758 76.8047 53.4227 76.6172C53.4695 76.4766 53.6102 76.3594 53.8445 76.2656C54.1258 76.1719 54.5711 76.0547 55.1805 75.9141C55.7898 75.7734 56.5398 75.6094 57.4305 75.4219C57.5242 73.5 57.5945 71.0625 57.6414 68.1094C57.6883 65.1562 57.7586 62.1562 57.8523 59.1094C57.0555 58.9688 56.3523 58.3359 55.743 57.2109C55.1336 56.0391 54.8523 54.75 54.8992 53.3438C55.1805 53.25 55.4852 53.1797 55.8133 53.1328C56.1883 53.0859 56.5398 53.0156 56.868 52.9219C57.243 52.8281 57.618 52.7578 57.993 52.7109C58.0398 51.4922 58.0633 50.3906 58.0633 49.4062C58.0633 48.4219 58.0867 47.5547 58.1336 46.8047C58.2273 44.8359 58.2508 42.8906 58.2039 40.9688C58.157 39 58.1102 37.1953 58.0633 35.5547C57.6414 35.6016 57.1961 35.6484 56.7273 35.6953C56.3523 35.7422 55.9539 35.7891 55.532 35.8359C55.1102 35.8828 54.7352 35.9297 54.407 35.9766ZM95.163 71.3438C95.5848 71.3438 96.1473 70.5938 96.8505 69.0938C97.5536 67.5938 98.2098 65.7891 98.8192 63.6797C99.4755 61.5703 99.9911 59.3906 100.366 57.1406C100.788 54.8906 100.905 52.9922 100.718 51.4453C100.624 50.9297 100.483 50.5078 100.296 50.1797C100.155 49.8516 99.9677 49.5 99.7333 49.125C100.015 48.75 100.366 48.4688 100.788 48.2812C101.21 48.0469 101.608 47.8828 101.983 47.7891C102.452 47.6484 102.921 47.5547 103.39 47.5078C104.515 47.4609 105.335 47.6484 105.85 48.0703C106.132 48.3516 106.272 49.0078 106.272 50.0391C106.272 51.0703 106.155 52.2891 105.921 53.6953C105.733 55.0547 105.452 56.5078 105.077 58.0547C104.749 59.5547 104.374 60.9375 103.952 62.2031C103.53 63.4219 103.015 64.7578 102.405 66.2109C101.796 67.6172 101.163 68.9766 100.507 70.2891C99.8505 71.5547 99.1942 72.6562 98.538 73.5938C97.8817 74.4844 97.3192 75.0234 96.8505 75.2109C95.8661 75.5859 94.8817 75.7734 93.8973 75.7734C92.9598 75.7734 92.3739 75.6562 92.1395 75.4219C92.0458 75.3281 91.8348 75 91.5067 74.4375C91.1786 73.875 90.8036 73.1484 90.3817 72.2578C90.0067 71.3672 89.5848 70.3359 89.1161 69.1641C88.6942 67.9453 88.3192 66.6562 87.9911 65.2969C87.663 63.9375 87.4286 62.4609 87.288 60.8672C87.1473 59.2734 86.9833 57.7266 86.7958 56.2266C86.6552 54.6797 86.4442 53.25 86.163 51.9375C85.8817 50.625 85.4598 49.5469 84.8973 48.7031L88.202 47.3672C88.4833 47.2266 88.8114 47.1094 89.1864 47.0156C89.5614 46.875 89.9364 46.8281 90.3114 46.875C90.6864 46.9219 91.0145 47.1094 91.2958 47.4375C91.6239 47.7188 91.8348 48.2344 91.9286 48.9844C92.0223 49.8281 92.0927 50.8359 92.1395 52.0078C92.2333 53.1797 92.3036 54.3984 92.3505 55.6641C92.4442 56.9297 92.538 58.1953 92.6317 59.4609C92.7255 60.6797 92.8192 61.7812 92.913 62.7656C93.0067 63.7969 93.1239 64.8281 93.2645 65.8594C93.452 66.8906 93.6395 67.8047 93.827 68.6016C94.0614 69.3984 94.2723 70.0547 94.4598 70.5703C94.6942 71.0859 94.9286 71.3438 95.163 71.3438ZM118.341 75.7734C115.06 75.7734 112.528 74.6719 110.747 72.4688C108.966 70.2656 108.075 67.3828 108.075 63.8203C108.075 61.3359 108.427 59.0156 109.13 56.8594C109.88 54.6562 110.864 52.7578 112.083 51.1641C113.302 49.5703 114.708 48.3281 116.302 47.4375C117.942 46.5 119.653 46.0312 121.435 46.0312C123.169 46.0312 124.645 46.6641 125.864 47.9297C127.083 49.1484 127.692 50.9062 127.692 53.2031C127.692 54.7031 127.364 56.2031 126.708 57.7031C126.052 59.1562 125.185 60.4688 124.106 61.6406C123.075 62.7656 121.927 63.6797 120.661 64.3828C119.395 65.0859 118.177 65.4375 117.005 65.4375C116.255 65.4375 115.622 65.3438 115.106 65.1562C114.591 64.9688 114.122 64.6875 113.7 64.3125C113.841 66.9844 114.427 68.8594 115.458 69.9375C116.489 70.9688 117.825 71.4844 119.466 71.4844C120.591 71.4844 121.575 71.25 122.419 70.7812C123.31 70.3125 124.06 69.7734 124.669 69.1641C125.278 68.5547 125.77 67.9453 126.145 67.3359C126.52 66.6797 126.778 66.1875 126.919 65.8594C127.06 65.5781 127.294 65.4375 127.622 65.4375C127.997 65.4375 128.185 65.7188 128.185 66.2812C128.185 66.7969 127.997 67.5938 127.622 68.6719C127.294 69.7031 126.731 70.7578 125.935 71.8359C125.138 72.8672 124.106 73.7812 122.841 74.5781C121.622 75.375 120.122 75.7734 118.341 75.7734ZM121.575 49.0547C121.294 49.0547 120.755 49.3594 119.958 49.9688C119.208 50.5312 118.388 51.375 117.497 52.5C116.653 53.625 115.856 54.9844 115.106 56.5781C114.403 58.125 113.958 59.8828 113.77 61.8516C116.583 61.1953 118.81 60.1641 120.45 58.7578C122.091 57.3516 122.911 55.2891 122.911 52.5703C122.911 51.2109 122.747 50.2969 122.419 49.8281C122.091 49.3125 121.81 49.0547 121.575 49.0547ZM138.495 73.1016C138.448 73.3828 138.19 73.6875 137.722 74.0156C137.3 74.2969 136.784 74.5547 136.175 74.7891C135.612 75.0234 135.073 75.1641 134.558 75.2109C134.042 75.3047 133.69 75.2578 133.503 75.0703C133.315 74.8828 133.011 74.5312 132.589 74.0156C132.167 73.5 131.909 72.6562 131.815 71.4844C131.722 70.2656 131.675 68.7422 131.675 66.9141C131.675 65.0391 131.651 62.9766 131.605 60.7266V57.9141C131.605 57.0703 131.581 56.0859 131.534 54.9609C131.534 53.8359 131.511 52.6641 131.464 51.4453C131.886 51.2109 132.308 51 132.73 50.8125C133.198 50.5781 133.62 50.3906 133.995 50.25C134.417 50.0625 134.815 49.9219 135.19 49.8281C136.175 49.5469 136.925 49.3828 137.44 49.3359C137.956 49.2891 138.261 49.4531 138.355 49.8281C138.401 50.1094 138.378 50.7891 138.284 51.8672C138.19 52.8047 138.073 54.2344 137.933 56.1562C137.792 58.0312 137.558 60.6562 137.23 64.0312C137.839 62.5312 138.331 61.2422 138.706 60.1641C139.128 59.0859 139.48 58.2188 139.761 57.5625C140.042 56.7656 140.3 56.1328 140.534 55.6641C140.769 55.0547 141.073 54.375 141.448 53.625C141.823 52.875 142.198 52.1719 142.573 51.5156C142.995 50.8594 143.37 50.2734 143.698 49.7578C144.073 49.2422 144.355 48.9375 144.542 48.8438C144.683 48.75 145.105 48.75 145.808 48.8438C146.511 48.9375 147.261 49.1719 148.058 49.5469C148.855 49.875 149.628 50.3672 150.378 51.0234C151.128 51.6328 151.62 52.3828 151.855 53.2734C152.136 54.3047 152.23 55.6641 152.136 57.3516C152.089 59.0391 151.972 60.7734 151.784 62.5547C151.644 64.3359 151.526 66.0234 151.433 67.6172C151.339 69.2109 151.433 70.4297 151.714 71.2734C151.808 71.7422 151.948 72.1641 152.136 72.5391C152.23 72.9141 152.347 73.2656 152.487 73.5938C152.675 73.875 152.862 74.0859 153.05 74.2266C151.925 74.7422 151.011 75.1172 150.308 75.3516C149.605 75.5859 149.065 75.75 148.69 75.8438C148.222 75.9844 147.894 76.0312 147.706 75.9844C147.284 75.8438 146.909 75.4922 146.581 74.9297C146.3 74.3672 146.042 73.4766 145.808 72.2578C145.714 71.8828 145.667 71.2734 145.667 70.4297C145.714 69.5391 145.784 68.5547 145.878 67.4766C145.972 66.3516 146.065 65.2031 146.159 64.0312C146.3 62.8125 146.394 61.6875 146.44 60.6562C146.534 59.5781 146.605 58.6641 146.651 57.9141C146.698 57.1172 146.698 56.5781 146.651 56.2969C146.417 55.4531 146.089 54.8672 145.667 54.5391C145.245 54.1641 144.917 54.1172 144.683 54.3984C144.073 55.1016 143.417 56.25 142.714 57.8438C142.058 59.3906 141.425 61.1016 140.815 62.9766C140.206 64.8047 139.69 66.6328 139.269 68.4609C138.847 70.2891 138.589 71.8359 138.495 73.1016ZM182.485 43.7109C181.97 43.6172 181.267 43.5234 180.376 43.4297C179.532 43.3359 178.665 43.2656 177.775 43.2188C176.743 43.1719 175.642 43.1484 174.47 43.1484C173.298 43.0547 171.821 43.0547 170.04 43.1484C168.306 43.1953 166.478 43.2188 164.556 43.2188C164.509 44.4375 164.415 45.6797 164.275 46.9453C164.181 48.2109 164.087 49.4531 163.993 50.6719C163.759 52.9219 163.548 55.2188 163.36 57.5625C163.22 59.9062 163.15 62.1328 163.15 64.2422C163.15 66.3516 163.267 68.2734 163.501 70.0078C163.782 71.6953 164.275 73.0312 164.978 74.0156C164.415 74.4375 163.806 74.7656 163.15 75C162.493 75.1875 161.907 75.3281 161.392 75.4219C160.782 75.5625 160.173 75.6328 159.564 75.6328C159.001 75.6328 158.532 75.4453 158.157 75.0703C157.782 74.6953 157.571 74.0391 157.525 73.1016C157.431 71.5078 157.407 69.9141 157.454 68.3203C157.548 66.6797 157.642 64.9688 157.735 63.1875C157.876 61.4062 158.017 59.5078 158.157 57.4922C158.298 55.4297 158.439 53.1797 158.579 50.7422C158.72 48.2109 158.79 45.75 158.79 43.3594C157.009 43.4062 155.509 43.4297 154.29 43.4297C153.071 43.4297 152.392 43.4062 152.251 43.3594C152.11 43.2656 151.946 43.0547 151.759 42.7266C151.571 42.4453 151.337 42.0234 151.056 41.4609C150.728 40.8984 150.329 40.1016 149.86 39.0703C150.751 39.0703 151.735 39.0703 152.814 39.0703C153.845 39.0703 154.806 39.0469 155.696 39C156.728 38.9531 157.759 38.9062 158.79 38.8594C158.743 38.1094 158.72 37.3125 158.72 36.4688C158.673 35.8125 158.65 35.0859 158.65 34.2891C158.65 33.4453 158.626 32.6719 158.579 31.9688C158.579 31.6875 158.907 31.3594 159.564 30.9844C160.267 30.5625 161.017 30.1875 161.814 29.8594C162.61 29.5313 163.337 29.3203 163.993 29.2266C164.696 29.1328 165.048 29.2969 165.048 29.7188C165.048 30.1406 165.025 31.1719 164.978 32.8125C164.978 34.4062 164.931 36.3516 164.837 38.6484C165.306 38.6484 165.657 38.625 165.892 38.5781C168.376 38.4844 170.368 38.3906 171.868 38.2969C173.415 38.1562 174.681 38.1328 175.665 38.2266C176.65 38.3203 177.517 38.5547 178.267 38.9297C179.017 39.3047 179.86 39.9141 180.798 40.7578C181.126 41.0391 181.407 41.3438 181.642 41.6719C181.876 41.9531 182.064 42.2812 182.204 42.6562C182.392 42.9844 182.485 43.3359 182.485 43.7109ZM180.702 61.6406C181.734 62.0156 182.718 62.3672 183.655 62.6953C184.593 63.0234 185.413 63.4219 186.116 63.8906C186.82 64.3594 187.382 64.9219 187.804 65.5781C188.226 66.1875 188.437 66.9609 188.437 67.8984C188.437 69.0234 188.179 70.0781 187.663 71.0625C187.195 72.0469 186.491 72.9141 185.554 73.6641C184.616 74.4141 183.468 75 182.109 75.4219C180.796 75.8906 179.32 76.125 177.679 76.125C175.851 76.125 174.374 75.9375 173.249 75.5625C172.124 75.2344 171.257 74.8359 170.648 74.3672C170.038 73.8984 169.64 73.4297 169.452 72.9609C169.265 72.4922 169.171 72.1172 169.171 71.8359C169.171 71.2734 169.288 70.6641 169.523 70.0078C169.757 69.3047 170.202 68.5547 170.859 67.7578C171.14 67.4297 171.445 67.125 171.773 66.8438C172.429 66.2812 173.085 65.9297 173.741 65.7891C173.648 66.8672 173.765 67.7578 174.093 68.4609C174.468 69.1172 174.937 69.6328 175.499 70.0078C176.109 70.3828 176.765 70.6406 177.468 70.7812C178.218 70.9219 178.921 70.9922 179.577 70.9922C180.234 70.9922 180.89 70.8984 181.546 70.7109C182.249 70.5234 182.882 70.2891 183.445 70.0078C184.007 69.6797 184.452 69.3281 184.78 68.9531C185.155 68.5312 185.343 68.0859 185.343 67.6172C185.343 67.1016 185.132 66.6797 184.71 66.3516C184.288 66.0234 183.749 65.7656 183.093 65.5781C182.484 65.3438 181.804 65.1797 181.054 65.0859C180.351 64.9453 179.671 64.8047 179.015 64.6641C178.359 64.5234 177.468 64.3359 176.343 64.1016C175.265 63.8203 174.187 63.3984 173.109 62.8359C172.077 62.2734 171.163 61.5234 170.366 60.5859C169.616 59.6484 169.241 58.4062 169.241 56.8594C169.241 55.0781 169.687 53.5312 170.577 52.2188C171.515 50.8594 172.64 49.7344 173.952 48.8438C175.312 47.9062 176.741 47.2031 178.241 46.7344C179.741 46.2656 181.077 46.0312 182.249 46.0312C182.859 46.0312 183.515 46.125 184.218 46.3125C184.921 46.4531 185.577 46.7344 186.187 47.1562C186.796 47.5312 187.288 48.0469 187.663 48.7031C188.085 49.3594 188.296 50.2031 188.296 51.2344C188.296 52.2656 188.202 53.1094 188.015 53.7656C187.874 54.375 187.64 54.8672 187.312 55.2422C187.03 55.5703 186.679 55.7812 186.257 55.875C185.835 55.9688 185.343 56.0156 184.78 56.0156C184.405 56.0156 184.054 55.9688 183.726 55.875C183.445 55.7812 183.14 55.6875 182.812 55.5938C182.484 55.5 182.179 55.3359 181.898 55.1016C182.366 54.5391 182.718 54 182.952 53.4844C183.234 52.9688 183.374 52.3359 183.374 51.5859C183.374 50.9297 183.187 50.3438 182.812 49.8281C182.484 49.3125 181.921 49.0547 181.124 49.0547C180.28 49.0547 179.46 49.2188 178.663 49.5469C177.913 49.875 177.234 50.3203 176.624 50.8828C176.062 51.4453 175.593 52.1016 175.218 52.8516C174.89 53.5547 174.726 54.3281 174.726 55.1719C174.726 56.4375 175.195 57.6328 176.132 58.7578C177.116 59.8828 178.64 60.8438 180.702 61.6406Z" fill="white"/>
</svg>
